# xmcd CD database file
#
# Track frame offsets:
#	183
#	25793
#	53228
#	111913
#	138510
#	160778
#	180033
#	202758
#	214900
#	245120
#	254545
#	256848
#	263229
#	276293
#	286486
#	293830
#	301376
#
# Disc length: 4141 seconds
#
# Revision: 0
# Processed by: cddbd v1.5.2PL0 Copyright (c) Steve Scherf et al.
# Submitted via: CDex 1.51
#
DISCID=fd102b11
DTITLE=Charles Ives - Songs - Piano Trio - Violin Sonatas N°2 and 4
DYEAR=1996
DGENRE=Musique Contemporaine
TTITLE0=Piano Trio - I. Andante moderato
TTITLE1=Piano Trio - II. TSIAJ (Presto)
TTITLE2=Piano Trio - III. Moderato con moto
TTITLE3=Violin Sonata N°2 - I. Autumn (Allegro maestoso)
TTITLE4=Violin Sonata N°2 - II. In the Barn (Presto)
TTITLE5=Violin Sonata N°2 - III. The Revival (Largo)
TTITLE6=Largo
TTITLE7=Violin Sonata N°4 (Children's Day at the Camp Meeting) - I. Allegro
TTITLE8=Violin Sonata N°4 (Children's Day at the Camp Meeting) - II. Largo
TTITLE9=Violin Sonata N°4 (Children's Day at the Camp Meeting) - III. Allegro
TTITLE10=The Side Show
TTITLE11=Two Little Flowers
TTITLE12=Down East
TTITLE13=The Circus Band
TTITLE14=Berceuse
TTITLE15=At the River
TTITLE16=The Children's Hour
EXTD=YEAR: 1996
EXTT0=
EXTT1=
EXTT2=
EXTT3=
EXTT4=
EXTT5=
EXTT6=
EXTT7=
EXTT8=
EXTT9=
EXTT10=
EXTT11=
EXTT12=
EXTT13=
EXTT14=
EXTT15=
EXTT16=
PLAYORDER=
